G04 #@! TF.FileFunction,Legend,Bot*
%FSLAX46Y46*%
G04 Gerber Fmt 4.6, Leading zero omitted, Abs format (unit mm)*
G04 Created by KiCad (PCBNEW 4.0.1-stable) date 2/16/2016 3:06:14 PM*
%MOMM*%
G01*
G04 APERTURE LIST*
%ADD10C,0.100000*%
%ADD11C,0.200000*%
%ADD12C,0.300000*%
G04 APERTURE END LIST*
D10*
D11*
X131572000Y-99060000D02*
X131572000Y-101600000D01*
X131572000Y-96520000D02*
X131572000Y-93980000D01*
D12*
X135889714Y-111446571D02*
X135389714Y-112946571D01*
X134889714Y-111446571D01*
X134389714Y-112946571D02*
X134389714Y-111446571D01*
X134389714Y-112018000D02*
X134246857Y-111946571D01*
X133961143Y-111946571D01*
X133818286Y-112018000D01*
X133746857Y-112089429D01*
X133675428Y-112232286D01*
X133675428Y-112660857D01*
X133746857Y-112803714D01*
X133818286Y-112875143D01*
X133961143Y-112946571D01*
X134246857Y-112946571D01*
X134389714Y-112875143D01*
X132389714Y-111946571D02*
X132389714Y-112946571D01*
X133032571Y-111946571D02*
X133032571Y-112732286D01*
X132961143Y-112875143D01*
X132818285Y-112946571D01*
X132604000Y-112946571D01*
X132461143Y-112875143D01*
X132389714Y-112803714D01*
X131889714Y-111946571D02*
X131318285Y-111946571D01*
X131675428Y-112946571D02*
X131675428Y-111660857D01*
X131604000Y-111518000D01*
X131461142Y-111446571D01*
X131318285Y-111446571D01*
X135488857Y-108906571D02*
X134988857Y-110406571D01*
X134488857Y-108906571D01*
X134060286Y-110335143D02*
X133917429Y-110406571D01*
X133631714Y-110406571D01*
X133488857Y-110335143D01*
X133417429Y-110192286D01*
X133417429Y-110120857D01*
X133488857Y-109978000D01*
X133631714Y-109906571D01*
X133846000Y-109906571D01*
X133988857Y-109835143D01*
X134060286Y-109692286D01*
X134060286Y-109620857D01*
X133988857Y-109478000D01*
X133846000Y-109406571D01*
X133631714Y-109406571D01*
X133488857Y-109478000D01*
X132774571Y-109406571D02*
X132774571Y-110406571D01*
X132774571Y-109549429D02*
X132703143Y-109478000D01*
X132560285Y-109406571D01*
X132346000Y-109406571D01*
X132203143Y-109478000D01*
X132131714Y-109620857D01*
X132131714Y-110406571D01*
X131488857Y-110335143D02*
X131346000Y-110406571D01*
X131060285Y-110406571D01*
X130917428Y-110335143D01*
X130846000Y-110192286D01*
X130846000Y-110120857D01*
X130917428Y-109978000D01*
X131060285Y-109906571D01*
X131274571Y-109906571D01*
X131417428Y-109835143D01*
X131488857Y-109692286D01*
X131488857Y-109620857D01*
X131417428Y-109478000D01*
X131274571Y-109406571D01*
X131060285Y-109406571D01*
X130917428Y-109478000D01*
X134568286Y-105930000D02*
X134711143Y-105858571D01*
X134925429Y-105858571D01*
X135139714Y-105930000D01*
X135282572Y-106072857D01*
X135354000Y-106215714D01*
X135425429Y-106501429D01*
X135425429Y-106715714D01*
X135354000Y-107001429D01*
X135282572Y-107144286D01*
X135139714Y-107287143D01*
X134925429Y-107358571D01*
X134782572Y-107358571D01*
X134568286Y-107287143D01*
X134496857Y-107215714D01*
X134496857Y-106715714D01*
X134782572Y-106715714D01*
X133854000Y-106358571D02*
X133854000Y-107358571D01*
X133854000Y-106501429D02*
X133782572Y-106430000D01*
X133639714Y-106358571D01*
X133425429Y-106358571D01*
X133282572Y-106430000D01*
X133211143Y-106572857D01*
X133211143Y-107358571D01*
X131854000Y-107358571D02*
X131854000Y-105858571D01*
X131854000Y-107287143D02*
X131996857Y-107358571D01*
X132282571Y-107358571D01*
X132425429Y-107287143D01*
X132496857Y-107215714D01*
X132568286Y-107072857D01*
X132568286Y-106644286D01*
X132496857Y-106501429D01*
X132425429Y-106430000D01*
X132282571Y-106358571D01*
X131996857Y-106358571D01*
X131854000Y-106430000D01*
X135389714Y-103318571D02*
X134889714Y-104818571D01*
X134389714Y-103318571D01*
X133246857Y-104747143D02*
X133389714Y-104818571D01*
X133675428Y-104818571D01*
X133818286Y-104747143D01*
X133889714Y-104675714D01*
X133961143Y-104532857D01*
X133961143Y-104104286D01*
X133889714Y-103961429D01*
X133818286Y-103890000D01*
X133675428Y-103818571D01*
X133389714Y-103818571D01*
X133246857Y-103890000D01*
X131961143Y-104747143D02*
X132104000Y-104818571D01*
X132389714Y-104818571D01*
X132532572Y-104747143D01*
X132604000Y-104675714D01*
X132675429Y-104532857D01*
X132675429Y-104104286D01*
X132604000Y-103961429D01*
X132532572Y-103890000D01*
X132389714Y-103818571D01*
X132104000Y-103818571D01*
X131961143Y-103890000D01*
X135175428Y-100270571D02*
X134675428Y-101770571D01*
X134175428Y-100270571D01*
X133461142Y-101770571D02*
X133604000Y-101699143D01*
X133675428Y-101556286D01*
X133675428Y-100270571D01*
X132246857Y-101770571D02*
X132246857Y-100270571D01*
X132246857Y-101699143D02*
X132389714Y-101770571D01*
X132675428Y-101770571D01*
X132818286Y-101699143D01*
X132889714Y-101627714D01*
X132961143Y-101484857D01*
X132961143Y-101056286D01*
X132889714Y-100913429D01*
X132818286Y-100842000D01*
X132675428Y-100770571D01*
X132389714Y-100770571D01*
X132246857Y-100842000D01*
X135389714Y-94174571D02*
X134889714Y-95674571D01*
X134389714Y-94174571D01*
X133889714Y-94674571D02*
X133889714Y-96174571D01*
X133889714Y-94746000D02*
X133746857Y-94674571D01*
X133461143Y-94674571D01*
X133318286Y-94746000D01*
X133246857Y-94817429D01*
X133175428Y-94960286D01*
X133175428Y-95388857D01*
X133246857Y-95531714D01*
X133318286Y-95603143D01*
X133461143Y-95674571D01*
X133746857Y-95674571D01*
X133889714Y-95603143D01*
X132604000Y-95603143D02*
X132461143Y-95674571D01*
X132175428Y-95674571D01*
X132032571Y-95603143D01*
X131961143Y-95460286D01*
X131961143Y-95388857D01*
X132032571Y-95246000D01*
X132175428Y-95174571D01*
X132389714Y-95174571D01*
X132532571Y-95103143D01*
X132604000Y-94960286D01*
X132604000Y-94888857D01*
X132532571Y-94746000D01*
X132389714Y-94674571D01*
X132175428Y-94674571D01*
X132032571Y-94746000D01*
X135806571Y-96972572D02*
X134306571Y-96972572D01*
X135806571Y-97686858D02*
X134806571Y-97686858D01*
X135092286Y-97686858D02*
X134949429Y-97758286D01*
X134878000Y-97829715D01*
X134806571Y-97972572D01*
X134806571Y-98115429D01*
X135735143Y-98544000D02*
X135806571Y-98686857D01*
X135806571Y-98972572D01*
X135735143Y-99115429D01*
X135592286Y-99186857D01*
X135520857Y-99186857D01*
X135378000Y-99115429D01*
X135306571Y-98972572D01*
X135306571Y-98758286D01*
X135235143Y-98615429D01*
X135092286Y-98544000D01*
X135020857Y-98544000D01*
X134878000Y-98615429D01*
X134806571Y-98758286D01*
X134806571Y-98972572D01*
X134878000Y-99115429D01*
D11*
X131572000Y-99060000D02*
X132080000Y-98552000D01*
X131572000Y-99060000D02*
X132080000Y-99568000D01*
X133604000Y-99060000D02*
X131572000Y-99060000D01*
X133604000Y-96520000D02*
X133604000Y-99060000D01*
X131572000Y-96520000D02*
X133604000Y-96520000D01*
M02*
