M48
;DRILL file {KiCad 4.0.1-stable} date 2/16/2016 3:06:16 PM
;FORMAT={-:-/ absolute / inch / decimal}
FMAT,2
INCH,TZ
T1C0.016
T2C0.040
%
G90
G05
M72
T1
X5.28Y-3.67
X5.33Y-3.67
X5.35Y-4.28
X5.38Y-3.67
X5.38Y-3.72
X5.38Y-3.77
X5.38Y-3.9
X5.38Y-3.98
X5.42Y-3.94
X5.43Y-3.67
X5.43Y-3.72
X5.43Y-3.77
X5.43Y-4.4
T2
X5.1Y-3.7
X5.1Y-3.8
X5.1Y-3.9
X5.1Y-4.
X5.1Y-4.1
X5.1Y-4.2
X5.1Y-4.3
X5.1Y-4.4
T0
M30
