G04 #@! TF.FileFunction,Copper,L1,Top,Signal*
%FSLAX46Y46*%
G04 Gerber Fmt 4.6, Leading zero omitted, Abs format (unit mm)*
G04 Created by KiCad (PCBNEW 4.0.1-stable) date 2/16/2016 3:06:14 PM*
%MOMM*%
G01*
G04 APERTURE LIST*
%ADD10C,0.100000*%
%ADD11R,0.750000X1.200000*%
%ADD12R,2.032000X1.727200*%
%ADD13O,2.032000X1.727200*%
%ADD14R,1.700000X2.000000*%
%ADD15R,1.200000X0.900000*%
%ADD16R,0.508000X0.762000*%
%ADD17C,0.600000*%
%ADD18C,0.250000*%
%ADD19C,0.203200*%
G04 APERTURE END LIST*
D10*
D11*
X132588000Y-103698000D03*
X132588000Y-105598000D03*
X136906000Y-112456000D03*
X136906000Y-110556000D03*
D12*
X129540000Y-93980000D03*
D13*
X129540000Y-96520000D03*
X129540000Y-99060000D03*
X129540000Y-101600000D03*
X129540000Y-104140000D03*
X129540000Y-106680000D03*
X129540000Y-109220000D03*
X129540000Y-111760000D03*
D14*
X133604000Y-99790000D03*
X133604000Y-95790000D03*
D15*
X135212000Y-107696000D03*
X133012000Y-107696000D03*
D16*
X134810500Y-110236000D03*
X132905500Y-110236000D03*
X134810500Y-112776000D03*
X133858000Y-110236000D03*
X132905500Y-112776000D03*
X134429500Y-105918000D03*
X136334500Y-105918000D03*
X134429500Y-103378000D03*
X135382000Y-105918000D03*
X136334500Y-103378000D03*
D17*
X137922000Y-111760000D03*
X135890000Y-108712000D03*
X136652000Y-93218000D03*
X137922000Y-95758000D03*
X137922000Y-94488000D03*
X137922000Y-93218000D03*
X134112000Y-93218000D03*
X135382000Y-93218000D03*
X136652000Y-94488000D03*
X136652000Y-95758000D03*
X136652000Y-101092000D03*
X137668000Y-100076000D03*
X136652000Y-99060000D03*
D18*
X136906000Y-112456000D02*
X136906000Y-112268000D01*
X136906000Y-112268000D02*
X137414000Y-111760000D01*
X137414000Y-111760000D02*
X137922000Y-111760000D01*
X134810500Y-112776000D02*
X134810500Y-112585500D01*
X134810500Y-112585500D02*
X135636000Y-111760000D01*
X136398000Y-111760000D02*
X136906000Y-112268000D01*
X135636000Y-111760000D02*
X136398000Y-111760000D01*
X132588000Y-103698000D02*
X134109500Y-103698000D01*
X134109500Y-103698000D02*
X134429500Y-103378000D01*
X129540000Y-104140000D02*
X132146000Y-104140000D01*
X132146000Y-104140000D02*
X132588000Y-103698000D01*
X136906000Y-110556000D02*
X136906000Y-110236000D01*
X136906000Y-110236000D02*
X135890000Y-109220000D01*
X135890000Y-109220000D02*
X135890000Y-108712000D01*
X133858000Y-110236000D02*
X133858000Y-109982000D01*
X133858000Y-109982000D02*
X135128000Y-108712000D01*
X135128000Y-108712000D02*
X135890000Y-108712000D01*
X135212000Y-107696000D02*
X135382000Y-107696000D01*
X135382000Y-107696000D02*
X135890000Y-108204000D01*
X135890000Y-108204000D02*
X135890000Y-108712000D01*
X132588000Y-105598000D02*
X132588000Y-105410000D01*
X132588000Y-105410000D02*
X133096000Y-104902000D01*
X135382000Y-105156000D02*
X135382000Y-105918000D01*
X135128000Y-104902000D02*
X135382000Y-105156000D01*
X133096000Y-104902000D02*
X135128000Y-104902000D01*
X129540000Y-106680000D02*
X131826000Y-106680000D01*
X131826000Y-106680000D02*
X132588000Y-105918000D01*
X132588000Y-105918000D02*
X132588000Y-105598000D01*
X137668000Y-104394000D02*
X138430000Y-103632000D01*
X136334500Y-105727500D02*
X137668000Y-104394000D01*
X138938000Y-97536000D02*
X138176000Y-96774000D01*
X138938000Y-103124000D02*
X138938000Y-97536000D01*
X138430000Y-103632000D02*
X138938000Y-103124000D01*
X136334500Y-105918000D02*
X136334500Y-105727500D01*
X137160000Y-101600000D02*
X136652000Y-101092000D01*
X137160000Y-102616000D02*
X137160000Y-101600000D01*
X137160000Y-102616000D02*
X136398000Y-103378000D01*
X136334500Y-103378000D02*
X136398000Y-103378000D01*
X133012000Y-107696000D02*
X133096000Y-107696000D01*
X133096000Y-107696000D02*
X133858000Y-106934000D01*
X133858000Y-106489500D02*
X134429500Y-105918000D01*
X133858000Y-106934000D02*
X133858000Y-106489500D01*
X129540000Y-109220000D02*
X131826000Y-109220000D01*
X132080000Y-108628000D02*
X133012000Y-107696000D01*
X132080000Y-108966000D02*
X132080000Y-108628000D01*
X131826000Y-109220000D02*
X132080000Y-108966000D01*
X129540000Y-109220000D02*
X131889500Y-109220000D01*
X131889500Y-109220000D02*
X132905500Y-110236000D01*
X134810500Y-110236000D02*
X134810500Y-111061500D01*
X134175500Y-111506000D02*
X132905500Y-112776000D01*
X134366000Y-111506000D02*
X134175500Y-111506000D01*
X134810500Y-111061500D02*
X134366000Y-111506000D01*
X132905500Y-112776000D02*
X132905500Y-112585500D01*
X132905500Y-112585500D02*
X132080000Y-111760000D01*
X132080000Y-111760000D02*
X129540000Y-111760000D01*
D19*
G36*
X138582400Y-97180400D02*
X130706287Y-97180400D01*
X130863304Y-96859753D01*
X130812379Y-96672400D01*
X129692400Y-96672400D01*
X129692400Y-96692400D01*
X129387600Y-96692400D01*
X129387600Y-96672400D01*
X128267621Y-96672400D01*
X128216696Y-96859753D01*
X128373713Y-97180400D01*
X128117600Y-97180400D01*
X128117600Y-96180247D01*
X128216696Y-96180247D01*
X128267621Y-96367600D01*
X129387600Y-96367600D01*
X129387600Y-95389700D01*
X129692400Y-95389700D01*
X129692400Y-96367600D01*
X130812379Y-96367600D01*
X130863304Y-96180247D01*
X130790367Y-96031300D01*
X132398400Y-96031300D01*
X132398400Y-96860733D01*
X132452537Y-96991431D01*
X132552569Y-97091463D01*
X132683267Y-97145600D01*
X133362700Y-97145600D01*
X133451600Y-97056700D01*
X133451600Y-95942400D01*
X133756400Y-95942400D01*
X133756400Y-97056700D01*
X133845300Y-97145600D01*
X134524733Y-97145600D01*
X134655431Y-97091463D01*
X134755463Y-96991431D01*
X134809600Y-96860733D01*
X134809600Y-96031300D01*
X134720700Y-95942400D01*
X133756400Y-95942400D01*
X133451600Y-95942400D01*
X132487300Y-95942400D01*
X132398400Y-96031300D01*
X130790367Y-96031300D01*
X130678753Y-95803372D01*
X130329430Y-95480461D01*
X129883125Y-95315810D01*
X129692400Y-95389700D01*
X129387600Y-95389700D01*
X129196875Y-95315810D01*
X128750570Y-95480461D01*
X128401247Y-95803372D01*
X128216696Y-96180247D01*
X128117600Y-96180247D01*
X128117600Y-94221300D01*
X128168400Y-94221300D01*
X128168400Y-94914333D01*
X128222537Y-95045031D01*
X128322569Y-95145063D01*
X128453267Y-95199200D01*
X129298700Y-95199200D01*
X129387600Y-95110300D01*
X129387600Y-94132400D01*
X129692400Y-94132400D01*
X129692400Y-95110300D01*
X129781300Y-95199200D01*
X130626733Y-95199200D01*
X130757431Y-95145063D01*
X130857463Y-95045031D01*
X130911600Y-94914333D01*
X130911600Y-94719267D01*
X132398400Y-94719267D01*
X132398400Y-95548700D01*
X132487300Y-95637600D01*
X133451600Y-95637600D01*
X133451600Y-94523300D01*
X133756400Y-94523300D01*
X133756400Y-95637600D01*
X134720700Y-95637600D01*
X134809600Y-95548700D01*
X134809600Y-94719267D01*
X134755463Y-94588569D01*
X134655431Y-94488537D01*
X134524733Y-94434400D01*
X133845300Y-94434400D01*
X133756400Y-94523300D01*
X133451600Y-94523300D01*
X133362700Y-94434400D01*
X132683267Y-94434400D01*
X132552569Y-94488537D01*
X132452537Y-94588569D01*
X132398400Y-94719267D01*
X130911600Y-94719267D01*
X130911600Y-94221300D01*
X130822700Y-94132400D01*
X129692400Y-94132400D01*
X129387600Y-94132400D01*
X128257300Y-94132400D01*
X128168400Y-94221300D01*
X128117600Y-94221300D01*
X128117600Y-93045667D01*
X128168400Y-93045667D01*
X128168400Y-93738700D01*
X128257300Y-93827600D01*
X129387600Y-93827600D01*
X129387600Y-92849700D01*
X129692400Y-92849700D01*
X129692400Y-93827600D01*
X130822700Y-93827600D01*
X130911600Y-93738700D01*
X130911600Y-93045667D01*
X130857463Y-92914969D01*
X130757431Y-92814937D01*
X130626733Y-92760800D01*
X129781300Y-92760800D01*
X129692400Y-92849700D01*
X129387600Y-92849700D01*
X129298700Y-92760800D01*
X128453267Y-92760800D01*
X128322569Y-92814937D01*
X128222537Y-92914969D01*
X128168400Y-93045667D01*
X128117600Y-93045667D01*
X128117600Y-92557600D01*
X138582400Y-92557600D01*
X138582400Y-97180400D01*
X138582400Y-97180400D01*
G37*
X138582400Y-97180400D02*
X130706287Y-97180400D01*
X130863304Y-96859753D01*
X130812379Y-96672400D01*
X129692400Y-96672400D01*
X129692400Y-96692400D01*
X129387600Y-96692400D01*
X129387600Y-96672400D01*
X128267621Y-96672400D01*
X128216696Y-96859753D01*
X128373713Y-97180400D01*
X128117600Y-97180400D01*
X128117600Y-96180247D01*
X128216696Y-96180247D01*
X128267621Y-96367600D01*
X129387600Y-96367600D01*
X129387600Y-95389700D01*
X129692400Y-95389700D01*
X129692400Y-96367600D01*
X130812379Y-96367600D01*
X130863304Y-96180247D01*
X130790367Y-96031300D01*
X132398400Y-96031300D01*
X132398400Y-96860733D01*
X132452537Y-96991431D01*
X132552569Y-97091463D01*
X132683267Y-97145600D01*
X133362700Y-97145600D01*
X133451600Y-97056700D01*
X133451600Y-95942400D01*
X133756400Y-95942400D01*
X133756400Y-97056700D01*
X133845300Y-97145600D01*
X134524733Y-97145600D01*
X134655431Y-97091463D01*
X134755463Y-96991431D01*
X134809600Y-96860733D01*
X134809600Y-96031300D01*
X134720700Y-95942400D01*
X133756400Y-95942400D01*
X133451600Y-95942400D01*
X132487300Y-95942400D01*
X132398400Y-96031300D01*
X130790367Y-96031300D01*
X130678753Y-95803372D01*
X130329430Y-95480461D01*
X129883125Y-95315810D01*
X129692400Y-95389700D01*
X129387600Y-95389700D01*
X129196875Y-95315810D01*
X128750570Y-95480461D01*
X128401247Y-95803372D01*
X128216696Y-96180247D01*
X128117600Y-96180247D01*
X128117600Y-94221300D01*
X128168400Y-94221300D01*
X128168400Y-94914333D01*
X128222537Y-95045031D01*
X128322569Y-95145063D01*
X128453267Y-95199200D01*
X129298700Y-95199200D01*
X129387600Y-95110300D01*
X129387600Y-94132400D01*
X129692400Y-94132400D01*
X129692400Y-95110300D01*
X129781300Y-95199200D01*
X130626733Y-95199200D01*
X130757431Y-95145063D01*
X130857463Y-95045031D01*
X130911600Y-94914333D01*
X130911600Y-94719267D01*
X132398400Y-94719267D01*
X132398400Y-95548700D01*
X132487300Y-95637600D01*
X133451600Y-95637600D01*
X133451600Y-94523300D01*
X133756400Y-94523300D01*
X133756400Y-95637600D01*
X134720700Y-95637600D01*
X134809600Y-95548700D01*
X134809600Y-94719267D01*
X134755463Y-94588569D01*
X134655431Y-94488537D01*
X134524733Y-94434400D01*
X133845300Y-94434400D01*
X133756400Y-94523300D01*
X133451600Y-94523300D01*
X133362700Y-94434400D01*
X132683267Y-94434400D01*
X132552569Y-94488537D01*
X132452537Y-94588569D01*
X132398400Y-94719267D01*
X130911600Y-94719267D01*
X130911600Y-94221300D01*
X130822700Y-94132400D01*
X129692400Y-94132400D01*
X129387600Y-94132400D01*
X128257300Y-94132400D01*
X128168400Y-94221300D01*
X128117600Y-94221300D01*
X128117600Y-93045667D01*
X128168400Y-93045667D01*
X128168400Y-93738700D01*
X128257300Y-93827600D01*
X129387600Y-93827600D01*
X129387600Y-92849700D01*
X129692400Y-92849700D01*
X129692400Y-93827600D01*
X130822700Y-93827600D01*
X130911600Y-93738700D01*
X130911600Y-93045667D01*
X130857463Y-92914969D01*
X130757431Y-92814937D01*
X130626733Y-92760800D01*
X129781300Y-92760800D01*
X129692400Y-92849700D01*
X129387600Y-92849700D01*
X129298700Y-92760800D01*
X128453267Y-92760800D01*
X128322569Y-92814937D01*
X128222537Y-92914969D01*
X128168400Y-93045667D01*
X128117600Y-93045667D01*
X128117600Y-92557600D01*
X138582400Y-92557600D01*
X138582400Y-97180400D01*
G36*
X128216696Y-98720247D02*
X128267621Y-98907600D01*
X129387600Y-98907600D01*
X129387600Y-98887600D01*
X129692400Y-98887600D01*
X129692400Y-98907600D01*
X130812379Y-98907600D01*
X130863304Y-98720247D01*
X130862825Y-98719267D01*
X132398400Y-98719267D01*
X132398400Y-99548700D01*
X132487300Y-99637600D01*
X133451600Y-99637600D01*
X133451600Y-98523300D01*
X133756400Y-98523300D01*
X133756400Y-99637600D01*
X134720700Y-99637600D01*
X134809600Y-99548700D01*
X134809600Y-98719267D01*
X134755463Y-98588569D01*
X134655431Y-98488537D01*
X134524733Y-98434400D01*
X133845300Y-98434400D01*
X133756400Y-98523300D01*
X133451600Y-98523300D01*
X133362700Y-98434400D01*
X132683267Y-98434400D01*
X132552569Y-98488537D01*
X132452537Y-98588569D01*
X132398400Y-98719267D01*
X130862825Y-98719267D01*
X130706287Y-98399600D01*
X138074400Y-98399600D01*
X138074400Y-101498400D01*
X131826000Y-101498400D01*
X131786472Y-101506405D01*
X131754158Y-101528158D01*
X131021916Y-102260400D01*
X130706287Y-102260400D01*
X130863304Y-101939753D01*
X130812379Y-101752400D01*
X129692400Y-101752400D01*
X129692400Y-101772400D01*
X129387600Y-101772400D01*
X129387600Y-101752400D01*
X128267621Y-101752400D01*
X128216696Y-101939753D01*
X128373713Y-102260400D01*
X128117600Y-102260400D01*
X128117600Y-101260247D01*
X128216696Y-101260247D01*
X128267621Y-101447600D01*
X129387600Y-101447600D01*
X129387600Y-100469700D01*
X129692400Y-100469700D01*
X129692400Y-101447600D01*
X130812379Y-101447600D01*
X130863304Y-101260247D01*
X130678753Y-100883372D01*
X130329430Y-100560461D01*
X129883125Y-100395810D01*
X129692400Y-100469700D01*
X129387600Y-100469700D01*
X129196875Y-100395810D01*
X128750570Y-100560461D01*
X128401247Y-100883372D01*
X128216696Y-101260247D01*
X128117600Y-101260247D01*
X128117600Y-99399753D01*
X128216696Y-99399753D01*
X128401247Y-99776628D01*
X128750570Y-100099539D01*
X129196875Y-100264190D01*
X129387600Y-100190300D01*
X129387600Y-99212400D01*
X129692400Y-99212400D01*
X129692400Y-100190300D01*
X129883125Y-100264190D01*
X130329430Y-100099539D01*
X130403250Y-100031300D01*
X132398400Y-100031300D01*
X132398400Y-100860733D01*
X132452537Y-100991431D01*
X132552569Y-101091463D01*
X132683267Y-101145600D01*
X133362700Y-101145600D01*
X133451600Y-101056700D01*
X133451600Y-99942400D01*
X133756400Y-99942400D01*
X133756400Y-101056700D01*
X133845300Y-101145600D01*
X134524733Y-101145600D01*
X134655431Y-101091463D01*
X134755463Y-100991431D01*
X134809600Y-100860733D01*
X134809600Y-100031300D01*
X134720700Y-99942400D01*
X133756400Y-99942400D01*
X133451600Y-99942400D01*
X132487300Y-99942400D01*
X132398400Y-100031300D01*
X130403250Y-100031300D01*
X130678753Y-99776628D01*
X130863304Y-99399753D01*
X130812379Y-99212400D01*
X129692400Y-99212400D01*
X129387600Y-99212400D01*
X128267621Y-99212400D01*
X128216696Y-99399753D01*
X128117600Y-99399753D01*
X128117600Y-98399600D01*
X128373713Y-98399600D01*
X128216696Y-98720247D01*
X128216696Y-98720247D01*
G37*
X128216696Y-98720247D02*
X128267621Y-98907600D01*
X129387600Y-98907600D01*
X129387600Y-98887600D01*
X129692400Y-98887600D01*
X129692400Y-98907600D01*
X130812379Y-98907600D01*
X130863304Y-98720247D01*
X130862825Y-98719267D01*
X132398400Y-98719267D01*
X132398400Y-99548700D01*
X132487300Y-99637600D01*
X133451600Y-99637600D01*
X133451600Y-98523300D01*
X133756400Y-98523300D01*
X133756400Y-99637600D01*
X134720700Y-99637600D01*
X134809600Y-99548700D01*
X134809600Y-98719267D01*
X134755463Y-98588569D01*
X134655431Y-98488537D01*
X134524733Y-98434400D01*
X133845300Y-98434400D01*
X133756400Y-98523300D01*
X133451600Y-98523300D01*
X133362700Y-98434400D01*
X132683267Y-98434400D01*
X132552569Y-98488537D01*
X132452537Y-98588569D01*
X132398400Y-98719267D01*
X130862825Y-98719267D01*
X130706287Y-98399600D01*
X138074400Y-98399600D01*
X138074400Y-101498400D01*
X131826000Y-101498400D01*
X131786472Y-101506405D01*
X131754158Y-101528158D01*
X131021916Y-102260400D01*
X130706287Y-102260400D01*
X130863304Y-101939753D01*
X130812379Y-101752400D01*
X129692400Y-101752400D01*
X129692400Y-101772400D01*
X129387600Y-101772400D01*
X129387600Y-101752400D01*
X128267621Y-101752400D01*
X128216696Y-101939753D01*
X128373713Y-102260400D01*
X128117600Y-102260400D01*
X128117600Y-101260247D01*
X128216696Y-101260247D01*
X128267621Y-101447600D01*
X129387600Y-101447600D01*
X129387600Y-100469700D01*
X129692400Y-100469700D01*
X129692400Y-101447600D01*
X130812379Y-101447600D01*
X130863304Y-101260247D01*
X130678753Y-100883372D01*
X130329430Y-100560461D01*
X129883125Y-100395810D01*
X129692400Y-100469700D01*
X129387600Y-100469700D01*
X129196875Y-100395810D01*
X128750570Y-100560461D01*
X128401247Y-100883372D01*
X128216696Y-101260247D01*
X128117600Y-101260247D01*
X128117600Y-99399753D01*
X128216696Y-99399753D01*
X128401247Y-99776628D01*
X128750570Y-100099539D01*
X129196875Y-100264190D01*
X129387600Y-100190300D01*
X129387600Y-99212400D01*
X129692400Y-99212400D01*
X129692400Y-100190300D01*
X129883125Y-100264190D01*
X130329430Y-100099539D01*
X130403250Y-100031300D01*
X132398400Y-100031300D01*
X132398400Y-100860733D01*
X132452537Y-100991431D01*
X132552569Y-101091463D01*
X132683267Y-101145600D01*
X133362700Y-101145600D01*
X133451600Y-101056700D01*
X133451600Y-99942400D01*
X133756400Y-99942400D01*
X133756400Y-101056700D01*
X133845300Y-101145600D01*
X134524733Y-101145600D01*
X134655431Y-101091463D01*
X134755463Y-100991431D01*
X134809600Y-100860733D01*
X134809600Y-100031300D01*
X134720700Y-99942400D01*
X133756400Y-99942400D01*
X133451600Y-99942400D01*
X132487300Y-99942400D01*
X132398400Y-100031300D01*
X130403250Y-100031300D01*
X130678753Y-99776628D01*
X130863304Y-99399753D01*
X130812379Y-99212400D01*
X129692400Y-99212400D01*
X129387600Y-99212400D01*
X128267621Y-99212400D01*
X128216696Y-99399753D01*
X128117600Y-99399753D01*
X128117600Y-98399600D01*
X128373713Y-98399600D01*
X128216696Y-98720247D01*
M02*
