G04 #@! TF.FileFunction,Legend,Top*
%FSLAX46Y46*%
G04 Gerber Fmt 4.6, Leading zero omitted, Abs format (unit mm)*
G04 Created by KiCad (PCBNEW 4.0.1-stable) date 2/16/2016 3:06:14 PM*
%MOMM*%
G01*
G04 APERTURE LIST*
%ADD10C,0.100000*%
%ADD11C,0.150000*%
G04 APERTURE END LIST*
D10*
D11*
X133188000Y-104298000D02*
X133188000Y-104998000D01*
X131988000Y-104998000D02*
X131988000Y-104298000D01*
X136306000Y-111856000D02*
X136306000Y-111156000D01*
X137506000Y-111156000D02*
X137506000Y-111856000D01*
X130810000Y-95250000D02*
X130810000Y-113030000D01*
X130810000Y-113030000D02*
X128270000Y-113030000D01*
X128270000Y-113030000D02*
X128270000Y-95250000D01*
X131090000Y-92430000D02*
X131090000Y-93980000D01*
X130810000Y-95250000D02*
X128270000Y-95250000D01*
X127990000Y-93980000D02*
X127990000Y-92430000D01*
X127990000Y-92430000D02*
X131090000Y-92430000D01*
X134679000Y-96790000D02*
X134679000Y-98790000D01*
X132529000Y-98790000D02*
X132529000Y-96790000D01*
X133612000Y-107021000D02*
X134612000Y-107021000D01*
X134612000Y-108371000D02*
X133612000Y-108371000D01*
X132334000Y-112395000D02*
X132334000Y-110617000D01*
X132334000Y-110617000D02*
X135382000Y-110617000D01*
X135382000Y-110617000D02*
X135382000Y-112395000D01*
X135382000Y-112395000D02*
X132334000Y-112395000D01*
X136906000Y-103759000D02*
X136906000Y-105537000D01*
X136906000Y-105537000D02*
X133858000Y-105537000D01*
X133858000Y-105537000D02*
X133858000Y-103759000D01*
X133858000Y-103759000D02*
X136906000Y-103759000D01*
X132421334Y-102465143D02*
X132373715Y-102512762D01*
X132230858Y-102560381D01*
X132135620Y-102560381D01*
X131992762Y-102512762D01*
X131897524Y-102417524D01*
X131849905Y-102322286D01*
X131802286Y-102131810D01*
X131802286Y-101988952D01*
X131849905Y-101798476D01*
X131897524Y-101703238D01*
X131992762Y-101608000D01*
X132135620Y-101560381D01*
X132230858Y-101560381D01*
X132373715Y-101608000D01*
X132421334Y-101655619D01*
X133373715Y-102560381D02*
X132802286Y-102560381D01*
X133088000Y-102560381D02*
X133088000Y-101560381D01*
X132992762Y-101703238D01*
X132897524Y-101798476D01*
X132802286Y-101846095D01*
X136993334Y-109323143D02*
X136945715Y-109370762D01*
X136802858Y-109418381D01*
X136707620Y-109418381D01*
X136564762Y-109370762D01*
X136469524Y-109275524D01*
X136421905Y-109180286D01*
X136374286Y-108989810D01*
X136374286Y-108846952D01*
X136421905Y-108656476D01*
X136469524Y-108561238D01*
X136564762Y-108466000D01*
X136707620Y-108418381D01*
X136802858Y-108418381D01*
X136945715Y-108466000D01*
X136993334Y-108513619D01*
X137374286Y-108513619D02*
X137421905Y-108466000D01*
X137517143Y-108418381D01*
X137755239Y-108418381D01*
X137850477Y-108466000D01*
X137898096Y-108513619D01*
X137945715Y-108608857D01*
X137945715Y-108704095D01*
X137898096Y-108846952D01*
X137326667Y-109418381D01*
X137945715Y-109418381D01*
X131595905Y-93670381D02*
X131595905Y-92670381D01*
X131976858Y-92670381D01*
X132072096Y-92718000D01*
X132119715Y-92765619D01*
X132167334Y-92860857D01*
X132167334Y-93003714D01*
X132119715Y-93098952D01*
X132072096Y-93146571D01*
X131976858Y-93194190D01*
X131595905Y-93194190D01*
X133119715Y-93670381D02*
X132548286Y-93670381D01*
X132834000Y-93670381D02*
X132834000Y-92670381D01*
X132738762Y-92813238D01*
X132643524Y-92908476D01*
X132548286Y-92956095D01*
X135723334Y-98242381D02*
X135390000Y-97766190D01*
X135151905Y-98242381D02*
X135151905Y-97242381D01*
X135532858Y-97242381D01*
X135628096Y-97290000D01*
X135675715Y-97337619D01*
X135723334Y-97432857D01*
X135723334Y-97575714D01*
X135675715Y-97670952D01*
X135628096Y-97718571D01*
X135532858Y-97766190D01*
X135151905Y-97766190D01*
X136675715Y-98242381D02*
X136104286Y-98242381D01*
X136390000Y-98242381D02*
X136390000Y-97242381D01*
X136294762Y-97385238D01*
X136199524Y-97480476D01*
X136104286Y-97528095D01*
X136993334Y-108148381D02*
X136660000Y-107672190D01*
X136421905Y-108148381D02*
X136421905Y-107148381D01*
X136802858Y-107148381D01*
X136898096Y-107196000D01*
X136945715Y-107243619D01*
X136993334Y-107338857D01*
X136993334Y-107481714D01*
X136945715Y-107576952D01*
X136898096Y-107624571D01*
X136802858Y-107672190D01*
X136421905Y-107672190D01*
X137374286Y-107243619D02*
X137421905Y-107196000D01*
X137517143Y-107148381D01*
X137755239Y-107148381D01*
X137850477Y-107196000D01*
X137898096Y-107243619D01*
X137945715Y-107338857D01*
X137945715Y-107434095D01*
X137898096Y-107576952D01*
X137326667Y-108148381D01*
X137945715Y-108148381D01*
X132334095Y-108733167D02*
X132334095Y-109452833D01*
X132381714Y-109537500D01*
X132429333Y-109579833D01*
X132524571Y-109622167D01*
X132715048Y-109622167D01*
X132810286Y-109579833D01*
X132857905Y-109537500D01*
X132905524Y-109452833D01*
X132905524Y-108733167D01*
X133334095Y-108817833D02*
X133381714Y-108775500D01*
X133476952Y-108733167D01*
X133715048Y-108733167D01*
X133810286Y-108775500D01*
X133857905Y-108817833D01*
X133905524Y-108902500D01*
X133905524Y-108987167D01*
X133857905Y-109114167D01*
X133286476Y-109622167D01*
X133905524Y-109622167D01*
X135382095Y-101560381D02*
X135382095Y-102369905D01*
X135429714Y-102465143D01*
X135477333Y-102512762D01*
X135572571Y-102560381D01*
X135763048Y-102560381D01*
X135858286Y-102512762D01*
X135905905Y-102465143D01*
X135953524Y-102369905D01*
X135953524Y-101560381D01*
X136953524Y-102560381D02*
X136382095Y-102560381D01*
X136667809Y-102560381D02*
X136667809Y-101560381D01*
X136572571Y-101703238D01*
X136477333Y-101798476D01*
X136382095Y-101846095D01*
M02*
